<?xml version="1.0" encoding="UTF-8"?>
<!DOCTYPE svg PUBLIC "-//W3C//DTD SVG 1.1//EN" "http://www.w3.org/Graphics/SVG/1.1/DTD/svg11.dtd">

<svg xmlns="http://www.w3.org/2000/svg" xmlns:xlink="http://www.w3.org/1999/xlink" version="1.1" width="100" height="100">

 <path
     d="m 64.641125,61.771121 -23.400816,0 0,-6.670573 12.265258,-10.705197 -12.265258,0 0,-6.616776 23.400816,0 0,6.616776 -12.319052,10.705197 12.319052,0 z"
     fill="#0064b9" />
  <path
     d="m 70.597093,45.365751 18.642837,0 0,7.008588 -18.642837,0 z" fill="#0064b9" />
  <path
     d="m 50.006984,76.053592 c -0.115638,-0.0277 -0.777953,-0.12483 -1.4718,-0.2158 -5.41381,-0.7098 -10.730029,-3.38393 -14.781278,-7.435189 -4.01882,-4.01882 -6.549222,-9.011107 -7.456544,-14.711186 -0.279678,-1.757045 -0.247325,-6.433228 0.05672,-8.200048 0.947361,-5.504871 3.508096,-10.465801 7.411536,-14.358436 4.0075,-3.996401 9.014368,-6.524824 14.769553,-7.458499 1.49652,-0.242783 6.113745,-0.242719 7.639357,1.05e-4 5.847999,0.930801 10.906625,3.50257 14.966496,7.608843 1.289222,1.303954 3.395995,3.958651 3.395995,4.279216 0,0.184007 -5.241914,4.812507 -5.450308,4.812507 -0.07145,0 -0.303373,-0.299615 -0.515378,-0.665815 -0.797245,-1.377113 -2.283311,-3.116427 -3.706157,-4.337747 -9.546622,-8.194498 -24.084157,-5.221976 -29.584359,6.049186 -1.476776,3.026245 -2.026111,5.611858 -1.907178,8.976658 0.07937,2.245607 0.293077,3.481057 0.937404,5.419341 1.58204,4.759134 5.165946,8.860559 9.672901,11.06967 2.498986,1.224902 4.824729,1.792178 7.775172,1.896466 3.3648,0.118928 5.950413,-0.430408 8.97666,-1.90719 3.615491,-1.764309 6.679844,-4.704479 8.450628,-8.108158 0.329433,-0.633211 0.638484,-1.151293 0.686776,-1.151293 0.0669,0 6.13705,3.167915 6.312698,3.294487 0.08924,0.06432 -0.473566,1.217222 -1.12881,2.312373 -3.977301,6.647579 -10.646715,11.225379 -18.308193,12.566499 -1.084697,0.18987 -6.213361,0.39072 -6.741904,0.26401 l 0,0 z" fill="#0064b9" />
  <path
     d="M 49.796729,86.964312 C 40.789514,86.213112 32.820436,82.641092 26.544933,76.542022 20.423062,70.592252 16.819963,63.572887 15.499098,55.023041 15.062175,52.194932 15.065289,47.320717 15.50583,44.460326 16.523,37.8561 19.008985,32.0431 23.067656,26.778451 c 1.183687,-1.535399 4.796445,-5.143977 6.350154,-6.342808 9.824393,-7.580405 22.165829,-9.824784 34.105352,-6.202309 4.117038,1.249112 8.663261,3.669513 12.13706,6.461746 2.311712,1.858148 5.212312,4.88889 6.849335,7.15666 l 0.420626,0.582682 -2.959422,2.571178 c -1.627681,1.414148 -2.975467,2.571178 -2.995076,2.571178 -0.01961,0 -0.554638,-0.689329 -1.188955,-1.53184 -3.949789,-5.24621 -10.015402,-9.269579 -16.24808,-10.777501 -4.469528,-1.081349 -8.643936,-1.176686 -13.013175,-0.297204 -9.004973,1.812613 -16.843785,7.994383 -20.768644,16.378379 -3.198723,6.832873 -3.648272,14.559079 -1.262611,21.700122 2.777687,8.314508 9.407571,15.201898 17.567534,18.249888 8.56517,3.19934 18.17531,2.2458 25.794876,-2.55943 2.104068,-1.32691 3.509401,-2.45054 5.282351,-4.22349 5.03561,-5.035602 7.944381,-11.326611 8.556794,-18.506352 0.148587,-1.741948 0.117411,-3.476667 -0.102642,-5.71199 l -0.08624,-0.876076 3.930408,0 3.930396,0 0.07906,0.805985 c 0.584158,5.954639 -0.336914,12.224499 -2.594253,17.659534 -1.861461,4.481856 -4.393794,8.333259 -7.754104,11.793149 -3.04166,3.1318 -6.306557,5.52001 -10.15467,7.42795 -5.101919,2.52958 -10.078923,3.74729 -15.782901,3.86152 -1.464793,0.0293 -2.978645,0.027 -3.364121,-0.005 l 0,0 z" fill="#0064b9" />

</svg>
